<?xml version="1.0" encoding="utf-8"?>
<!-- Generator: Adobe Illustrator 16.0.0, SVG Export Plug-In . SVG Version: 6.00 Build 0)  -->
<!DOCTYPE svg PUBLIC "-//W3C//DTD SVG 1.1//EN" "http://www.w3.org/Graphics/SVG/1.1/DTD/svg11.dtd">
<svg version="1.1" id="Livello_1" xmlns="http://www.w3.org/2000/svg" xmlns:xlink="http://www.w3.org/1999/xlink" x="0px" y="0px"
	 width="195px" height="62px" viewBox="17.5 5.5 195 62" enable-background="new 17.5 5.5 195 62" xml:space="preserve">
<path fill="#FFFFFF" d="M80.411,67.354h-0.603v-2.93l-2.998-3.792h0.783l2.517,3.201l2.517-3.201h0.782l-2.998,3.792V67.354z
	 M93.489,61.313l-1.413,3.048h2.819L93.489,61.313z M97.044,67.353h-0.676l-1.163-2.384h-3.43l-1.165,2.384h-0.675l3.252-6.721
	h0.604L97.044,67.353z M110.524,65.689c-0.313,0.284-1.247,1.2-2.83,1.2c-1.705,0-2.957-1.3-2.957-2.894
	c0-1.804,1.394-2.897,3.049-2.897c1.669,0,2.453,0.868,2.718,1.128l0.409-0.439c-0.372-0.385-1.215-1.3-3.127-1.3
	c-1.744,0-3.654,1.2-3.654,3.509c0,2.401,1.989,3.504,3.562,3.504c1.849,0,2.908-1.05,3.247-1.362L110.524,65.689z M125.231,60.633
	h-0.601v2.938h-4.627v-2.938h-0.601v6.722h0.601v-3.17h4.627v3.17h0.601V60.633z M136.657,61.244h2.527v-0.611h-5.655v0.611h2.525
	v6.11h0.603V61.244z M149.032,63.529c-0.771-0.01-1.519-0.233-1.519-1.052c0-0.556,0.633-1.379,2.294-1.379
	c1.119,0,1.725,0.432,2.331,0.806l0.371-0.455c-0.348-0.234-1.147-0.962-2.747-0.962c-2.062,0-2.852,1.102-2.852,1.982
	c0,1.316,1.161,1.656,2.121,1.667l1.533,0.027c1.163,0.028,1.723,0.674,1.723,1.28c0,0.996-1.185,1.445-2.562,1.445
	c-1.8,0-2.426-0.843-2.881-1.2l-0.414,0.438c0.473,0.448,1.288,1.372,3.296,1.372c2.366,0,3.164-1.094,3.164-2.056
	c0-0.995-0.814-1.863-2.292-1.889L149.032,63.529z M175.631,39.714c-0.257,0-0.465,0.208-0.465,0.465l-0.004,7.636
	c0,0.574-0.457,1.045-1.03,1.045h-19.927c-0.574,0-1.043-0.472-1.043-1.045v-7.639c0-0.254-0.202-0.462-0.454-0.462h-1.129
	c-0.255,0-0.46,0.208-0.46,0.462l-0.006,10.836c0,0.964,0.773,1.743,1.729,1.743h22.652c0.952,0,1.715-0.779,1.715-1.743
	l0.002-10.833c0-0.257-0.2-0.465-0.458-0.465H175.631z M62.982,50.674l17.435-9.04c0.304-0.18,0.511-0.511,0.511-0.893
	c0-0.568-0.504-1.022-1.067-1.022H55.437c-0.257,0-0.463,0.215-0.463,0.468v1.143c0,0.262,0.206,0.465,0.463,0.465l0.002-0.005
	h17.463l-17.582,8.997c-1.201,0.599-0.879,1.969,0.466,1.969l24.948,0.001c0.257,0,0.464-0.205,0.464-0.464v-1.151
	c0-0.255-0.207-0.467-0.464-0.467h-0.004H62.982z M93.881,39.719c-0.254,0-0.46,0.205-0.46,0.464v12.109
	c0,0.259,0.206,0.468,0.46,0.468h2.972c0.256,0,0.461-0.209,0.461-0.468V40.183c0-0.259-0.205-0.464-0.461-0.464H93.881z
	 M212.5,40.18c0-0.256-0.209-0.461-0.458-0.461h-25.191c-0.256,0-0.459,0.205-0.459,0.461v2.923c0,0.255,0.203,0.463,0.454,0.463
	h11.557l0.003,8.721c0,0.257,0.207,0.464,0.463,0.464h1.135c0.257,0,0.464-0.207,0.464-0.464l-0.008-8.721h11.583
	c0.249,0,0.458-0.208,0.458-0.463V40.18z M19.229,52.765c0.344,0,0.652-0.133,0.881-0.352l11.022-9.987l10.854,10.011
	c0.22,0.195,0.572,0.319,0.907,0.321h3.607c0.255,0,0.461-0.203,0.461-0.461c0-0.141-0.06-0.258-0.151-0.347v-0.003L32.999,39.252
	c-0.348-0.324-1.01-0.318-1.361,0L17.647,51.961c-0.093,0.084-0.147,0.205-0.147,0.341c0,0.253,0.204,0.463,0.458,0.463h1.267
	H19.229z M138.072,52.755c0.253,0,0.461-0.209,0.461-0.463l-0.003-11.798c0-0.584-0.47-1.053-1.041-1.053
	c-0.241,0-0.462,0.08-0.64,0.221l-12.533,8.807l-12.408-8.848l-0.007-0.005c-0.155-0.11-0.348-0.175-0.554-0.175
	c-0.522,0-0.946,0.43-0.946,0.96v11.896c0,0.258,0.204,0.463,0.46,0.463h1.134c0.256,0,0.46-0.205,0.46-0.463v-7.821l9.304,6.705
	l0.005-0.006c0.304,0.233,0.686,0.366,1.104,0.366c0.398,0,0.769-0.126,1.07-0.346h0.004l10.985-7.732v8.829
	c0,0.256,0.205,0.464,0.46,0.464L138.072,52.755L138.072,52.755z M116.025,5.5L67.888,22.09v1.892c0,0,0,0.442,0.439,0.442
	c0.438,0,46.19-10.271,46.19-10.271s0.641-0.185,1.508-0.156c0.867-0.029,1.51,0.156,1.51,0.156s45.752,10.271,46.188,10.271
	c0.439,0,0.439-0.442,0.439-0.442V22.09L116.025,5.5z"/>
</svg>
